<svg fill="currentColor" xmlns="http://www.w3.org/2000/svg" viewBox="0 0 1024 1024" version="1.1">
	<path d="M 496 35.058 C 479.473 39.352, 465.896 49.371, 459.785 61.786 C 455.598 70.290, 454.934 86.551, 458.500 93.268 C 465.540 106.529, 479.431 116.293, 498.915 121.673 C 499.943 121.957, 499.503 122.944, 497.303 125.282 C 487.550 135.649, 476.339 159.426, 474.435 173.779 L 473.742 179 466.031 179 C 447.970 179, 432.869 185.867, 428.648 196 C 422.749 210.162, 428.380 220.809, 445.548 227.956 C 449.905 229.769, 455.143 231.478, 457.188 231.752 L 460.907 232.251 457.006 236.877 C 446.417 249.436, 448.201 265.368, 460.590 268.871 C 463.433 269.674, 476.013 268.765, 480.131 267.458 C 482.112 266.830, 482.093 266.988, 479.679 271.151 C 473.083 282.527, 471.992 299.367, 477.392 306.447 C 481.760 312.174, 487.667 314.390, 496.737 313.703 C 503.252 313.211, 504.648 313.432, 508.878 315.626 C 515.570 319.098, 544.010 325.997, 551.637 325.999 L 557.773 326 558.268 329.250 C 558.540 331.038, 558.704 332.537, 558.631 332.582 C 558.559 332.627, 554 335.030, 548.500 337.922 C 533.808 345.646, 519.041 355.818, 496 374.086 C 451.630 409.262, 435.614 419.376, 421 421.444 C 409.605 423.057, 389.503 408.025, 345.307 364.842 L 328.114 348.043 332.615 344.810 C 336.956 341.692, 345 331.105, 345 328.508 C 345 327.814, 345.673 326.686, 346.495 326.004 C 347.318 325.321, 348.509 323.034, 349.142 320.922 C 350.456 316.536, 348.282 317.234, 376.749 312.053 C 402.681 307.332, 409.561 303.060, 415.260 288.141 C 418.892 278.631, 410.449 273.797, 384.500 270.529 C 377.900 269.698, 369.454 268.564, 365.731 268.009 C 362.009 267.454, 357.059 266.996, 354.731 266.991 C 352.404 266.987, 348.201 266.706, 345.392 266.369 L 340.283 265.755 344.653 259.127 C 352.149 247.757, 356.777 233.596, 353.750 231.295 C 350.228 228.617, 333.352 224.544, 330.430 225.665 C 329.789 225.911, 328.331 223.384, 327.046 219.799 C 321.292 203.741, 307.548 190.614, 293.898 188.139 C 274.762 184.668, 257.742 194.423, 247.560 214.694 L 245.012 219.766 238.729 220.166 C 231.092 220.653, 218.100 226.392, 215.437 230.455 C 213.243 233.805, 214.010 245.372, 216.937 253.077 L 218.910 258.268 213.705 257.635 C 210.842 257.286, 205.419 256.707, 201.654 256.348 L 194.808 255.695 195.404 250.597 C 195.731 247.794, 196.471 239.425, 197.046 232 C 199.313 202.774, 200.930 189.206, 202.947 182.500 C 206.222 171.608, 204.565 168.181, 194.520 165.079 C 191.137 164.034, 184.202 162.853, 179.110 162.455 L 169.851 161.730 170.492 159.176 C 170.845 157.771, 172.193 151.419, 173.488 145.061 C 176.593 129.823, 178.108 123.733, 179.121 122.426 C 179.579 121.835, 186.343 119.144, 194.154 116.447 C 211.322 110.517, 218.500 106.561, 218.500 103.027 C 218.500 96.781, 202.072 100.299, 183.500 110.523 C 171.868 116.927, 168.346 124.257, 160.616 158.151 L 160.012 160.802 143.756 160.888 C 104.089 161.098, 98.066 164.425, 103.960 182.874 C 105.418 187.439, 106.187 194.186, 106.966 209.254 C 107.541 220.389, 108.679 236.700, 109.494 245.500 C 110.309 254.300, 110.982 261.773, 110.988 262.107 C 110.995 262.440, 103.013 262.978, 93.250 263.302 C 73.918 263.943, 59.926 266.273, 50.717 270.383 C 42.945 273.852, 41.856 275.514, 41.882 283.863 C 41.914 293.850, 45.918 300.829, 54 304.982 C 60.051 308.091, 87.135 314.566, 108.461 318.002 C 115.082 319.069, 125.046 321.417, 130.602 323.221 C 140.611 326.470, 140.757 326.564, 146.642 333.500 C 149.908 337.350, 153.613 341.974, 154.876 343.775 C 161.305 352.945, 179.664 360.420, 206 364.589 C 216.539 366.258, 224.859 366.220, 256.025 364.363 L 266.550 363.736 272.261 368.956 C 281.297 377.214, 288.156 388.174, 287.369 393.097 C 286.774 396.817, 287.260 397.803, 296.348 411.300 C 324.008 452.379, 359.817 482.024, 394.595 492.636 C 407.670 496.626, 428.782 496.638, 443.798 492.666 C 461.089 488.091, 473.174 482.765, 492.303 471.289 C 511.577 459.727, 548.907 431.843, 552.543 426.294 C 554.630 423.109, 555.062 423.614, 559.523 434.445 C 568.444 456.100, 595.950 509.372, 612.657 537.349 C 616.220 543.316, 618.992 548.303, 618.818 548.431 C 618.643 548.559, 614.675 549.205, 610 549.866 C 605.325 550.527, 594.300 552.417, 585.500 554.067 C 507.081 568.769, 484.919 575.916, 453.017 596.790 C 421.840 617.190, 411.418 629.463, 367.506 697.500 C 354.738 717.283, 332.135 757.079, 324.825 772.647 C 319.333 784.344, 319.701 787.264, 327.249 791.872 C 330.459 793.833, 330.913 794.545, 330.411 796.831 C 329.822 799.509, 324.008 817.998, 323.415 819.074 C 323.242 819.389, 321.235 819.389, 318.956 819.074 C 314.862 818.507, 314.787 818.422, 312.705 812 C 305.865 790.896, 280.159 750.485, 264.428 736.108 C 243.144 716.655, 220.247 712.992, 200.345 725.856 C 192.537 730.902, 185.708 743.160, 183.888 755.395 C 180.804 776.132, 191.915 812.512, 209.698 839.902 C 236.382 881.001, 295.278 930.521, 322.657 934.879 C 350.649 939.334, 375.453 903.243, 370.764 864.882 L 369.710 856.264 374.269 849.882 C 380.673 840.916, 383.323 838.613, 386.362 839.376 C 393.172 841.085, 397.673 833.879, 416.001 791.929 C 423.459 774.859, 432.154 757.101, 438.001 747 C 440.071 743.425, 445.932 733.075, 451.026 724 C 471.711 687.154, 484.142 672.614, 506.500 659.118 C 527.267 646.582, 542.985 641.887, 597 632.086 C 647.996 622.833, 650.890 622.518, 649.409 626.377 C 649.149 627.054, 650.043 630.111, 651.396 633.170 C 652.749 636.229, 655 643.179, 656.397 648.616 C 661.914 670.074, 676.310 710.331, 685.133 728.972 C 699.140 758.568, 720.266 780.813, 746.448 793.536 C 770.393 805.173, 792.985 808.583, 845 808.414 L 871.500 808.328 879.792 804.506 C 890.653 799.499, 890.521 799.339, 890.422 817.301 C 890.305 838.695, 887.299 848.909, 879.722 853.655 C 877.400 855.109, 875.275 856.632, 875 857.039 C 874.725 857.446, 872.475 858.314, 870 858.969 C 859.467 861.753, 857.149 862.549, 850.500 865.662 C 830.315 875.113, 821.190 894.252, 828.171 912.495 C 833.843 927.317, 852.121 936.630, 875 936.356 C 915.558 935.870, 948.451 905.287, 960.886 856.500 C 966.072 836.154, 968.900 773.160, 965.503 753.676 C 963.143 740.146, 960.682 734.760, 953.262 726.895 C 936.165 708.771, 910.178 706.790, 888.194 721.934 C 882.619 725.775, 880.973 726.467, 879.250 725.698 C 877.837 725.068, 873.891 725.287, 867.319 726.362 C 839.658 730.887, 811.602 731.873, 800 728.728 C 780.334 723.398, 770.321 714.191, 756.249 688.500 C 748.943 675.162, 733.504 642.680, 728.920 631 C 727.085 626.325, 723.894 619.575, 721.831 616 C 717.309 608.167, 716.669 609.047, 732.690 601.054 C 739.394 597.709, 746.144 593.926, 747.690 592.646 C 753.584 587.767, 756.395 587.664, 760.035 592.193 C 761.812 594.404, 764.739 596.829, 766.541 597.582 C 769.601 598.860, 769.782 599.204, 769.300 602.802 C 768.084 611.864, 776.178 619.533, 788.133 620.647 C 793.579 621.154, 795.847 620.788, 803.807 618.120 C 814.752 614.451, 814.289 614.513, 813.563 616.802 C 812.252 620.933, 815.202 622.501, 821.928 621.251 C 839.298 618.020, 857.403 604.117, 864.574 588.500 C 868.333 580.314, 871 572.683, 871 570.112 C 871 568.263, 882.160 564.861, 907.480 558.992 C 912.418 557.848, 918.381 555.951, 920.730 554.778 C 924.860 552.716, 925 552.489, 925 547.888 C 925 545.271, 924.527 541.886, 923.949 540.366 C 922.646 536.937, 920 517.257, 920 510.988 C 920 507.332, 920.530 505.851, 922.500 504 C 925.224 501.441, 925.921 495.590, 923.943 491.893 C 923.361 490.807, 922.027 481.949, 920.977 472.209 C 919.927 462.469, 917.670 447.075, 915.961 438 C 914.252 428.925, 912.219 417.996, 911.443 413.714 C 909.280 401.779, 907.844 399.901, 898.973 397.412 C 894.158 396.061, 893 395.338, 893 393.682 C 893 382.122, 883.491 362.415, 872.665 351.539 C 847.853 326.613, 814.357 314.123, 760 309.531 C 750.925 308.764, 737.425 307.578, 730 306.896 C 696.097 303.781, 661.789 305.271, 633.735 311.078 C 628.364 312.190, 623.561 312.847, 623.062 312.539 C 621.814 311.767, 619 298.997, 619 294.104 L 619 290.102 622.750 291.746 C 629.298 294.616, 643.728 293.784, 651.644 290.079 C 665.034 283.813, 673.354 272.781, 679.984 252.500 C 684.676 238.149, 688.843 230.725, 698.535 219.446 C 715.491 199.714, 720.293 190.293, 720.425 176.500 C 720.551 163.289, 713.053 153.503, 696.814 145.683 L 688.127 141.500 688.064 136.144 C 687.880 120.729, 678.424 102.271, 666.500 94.052 C 660.409 89.853, 652.817 87.422, 633.315 83.427 C 599.901 76.580, 595.375 74.778, 581.974 62.977 C 571.107 53.408, 553.819 41.599, 546.063 38.447 C 532.194 32.812, 510.342 31.333, 496 35.058 M 519 124 C 517.625 124.440, 514.377 124.845, 511.782 124.900 C 507.297 124.995, 506.868 125.261, 503.064 130.298 C 500.864 133.212, 497.058 139.850, 494.606 145.048 C 490.681 153.367, 488.633 159.442, 482.213 181.808 L 480.690 187.115 471.095 186.884 C 448.759 186.346, 436.920 192.724, 438.255 204.574 C 439.254 213.436, 444.654 217.217, 463.019 221.918 C 478.228 225.811, 478.756 226.471, 472.044 233.201 C 464.183 241.082, 461.667 245.297, 461.667 250.584 C 461.667 253.050, 462.216 255.614, 462.888 256.283 C 464.970 258.356, 475.821 257.420, 489 254.029 C 511.090 248.346, 528.352 248.999, 537 255.845 C 541.050 259.051, 545 266.162, 545 270.245 C 545 277.183, 534.010 291.303, 519.356 303.192 C 515.860 306.029, 513 308.633, 513 308.980 C 513 309.326, 516.487 310.223, 520.750 310.973 C 525.013 311.722, 529.175 312.476, 530 312.647 C 532.403 313.145, 560.017 315.931, 565.500 316.229 C 571.577 316.558, 572.867 319.387, 568.504 322.818 L 565.899 324.867 568.568 330.184 C 578.083 349.137, 589.452 360.017, 599.718 359.990 C 605.136 359.976, 613.559 355.774, 615.907 351.912 C 620.447 344.448, 619.301 328.739, 613.262 315.653 L 609.500 307.500 609.500 293.403 C 609.500 283.751, 609.886 278.841, 610.725 277.831 C 611.734 276.616, 611.251 275.674, 607.975 272.475 C 600.972 265.638, 604.178 261.963, 613.513 266.128 C 619.453 268.778, 632.399 269.786, 638.688 268.087 C 656.791 263.198, 665.270 237.603, 655.267 218.039 C 650.695 209.096, 646.006 206.485, 634.662 206.564 C 623.955 206.640, 618.801 208.562, 606.497 217.067 C 602.094 220.111, 598.412 221.988, 597.518 221.645 C 595.651 220.929, 591.522 211.778, 589.376 203.599 C 585.452 188.650, 591.779 163.924, 603.435 148.654 C 607.785 142.955, 607.783 143, 603.668 143 C 600.018 143, 589.874 140.147, 580.500 136.483 C 572.580 133.388, 571.117 133.116, 556.397 131.992 C 542.099 130.901, 538.493 130.089, 529.556 125.953 C 522.714 122.786, 522.763 122.795, 519 124 M 517.500 135.955 C 510.317 137.149, 507.068 138.651, 506.084 141.235 C 504.399 145.659, 506.838 146.685, 520.284 147.207 C 536.910 147.852, 541.173 150.257, 544.839 161.061 C 546.921 167.197, 550.417 169.559, 553.558 166.952 C 555.720 165.158, 555.133 153.062, 552.652 148.282 C 547.331 138.031, 533.724 133.259, 517.500 135.955 M 115.500 171.868 C 107.587 173.586, 116.681 178.706, 132.610 181.501 C 149.798 184.516, 169.548 183.182, 187.381 177.802 C 195.718 175.286, 194.856 174.463, 182.386 173.034 C 167.298 171.306, 165.629 171.496, 164.268 175.100 C 162.858 178.837, 160.702 178.493, 159.991 174.418 L 159.482 171.500 138.991 171.358 C 127.721 171.281, 117.150 171.510, 115.500 171.868 M 506 178.706 C 495.875 182.408, 493.926 198.808, 503.051 203.526 C 505.972 205.037, 506.159 204.995, 508.953 202.201 C 512.529 198.625, 514.396 192.031, 513.642 185.644 C 512.826 178.725, 510.851 176.933, 506 178.706 M 116.481 188.750 C 120.484 204.539, 124.552 265.916, 122.160 274.444 C 121.552 276.613, 121.161 278.495, 121.292 278.625 C 122.545 279.878, 143.263 281.466, 158.557 281.481 C 182.153 281.504, 182.115 281.520, 182.618 271.454 C 182.809 267.629, 183.625 259.550, 184.431 253.500 C 185.237 247.450, 186.175 238, 186.515 232.500 C 187.086 223.274, 188.139 210.849, 189.674 195.250 C 190.015 191.783, 189.891 188.999, 189.395 188.998 C 188.903 188.997, 184.675 189.641, 180 190.430 C 154.270 194.772, 135.561 193.857, 120.383 187.516 C 115.659 185.542, 115.666 185.539, 116.481 188.750 M 281.281 199.915 C 270.366 202.695, 260.426 211.095, 254.175 222.822 C 250.392 229.920, 247.871 231.804, 244.539 230.021 C 242.277 228.810, 231.523 230.079, 229.845 231.754 C 228.946 232.651, 301.831 232.161, 314.213 231.186 L 322.926 230.500 316.133 219.982 C 312.398 214.198, 307.802 208.164, 305.920 206.574 C 299.101 200.812, 288.747 198.013, 281.281 199.915 M 635.746 227.086 C 628.072 228.894, 618 235.325, 618 238.417 C 618 242.139, 620.781 242.210, 628.698 238.690 C 632.989 236.782, 638.148 234.700, 640.162 234.062 C 642.175 233.425, 644.078 232.240, 644.389 231.429 C 644.939 229.996, 641.756 225.899, 640.250 226.100 C 639.837 226.156, 637.811 226.599, 635.746 227.086 M 335.500 241.082 C 325.365 242.267, 264.691 242.643, 242.750 241.657 C 221.251 240.690, 222.423 240.022, 227.429 250.395 C 237.391 271.033, 253.245 278.378, 288 278.456 L 307.500 278.500 315 274.913 C 319.125 272.939, 324.555 269.324, 327.066 266.879 C 335.289 258.871, 347.028 239.469, 343.250 240.131 C 342.837 240.204, 339.350 240.631, 335.500 241.082 M 500.155 262.472 C 492.122 264.297, 491.731 264.653, 488.644 272.982 C 483.990 285.538, 484.288 297.987, 489.326 301.516 C 492.217 303.541, 499.653 303.346, 504.500 301.118 C 513.886 296.804, 535 278.265, 535 274.337 C 535 264.524, 517.443 258.546, 500.155 262.472 M 513.305 265.291 C 510.354 266.932, 504 274.450, 504 276.302 C 504 277.118, 504.681 278.047, 505.514 278.367 C 507.148 278.994, 518.939 267.508, 518.978 265.250 C 519.006 263.675, 516.175 263.696, 513.305 265.291 M 192.492 271.227 C 190.865 281.288, 185.818 287.769, 177.705 290.215 C 170.009 292.536, 137.256 291.852, 126.325 289.143 C 115.089 286.358, 112 283.965, 112 278.048 C 112 274.175, 111.859 273.994, 108.750 273.866 C 101.607 273.571, 89.174 274.170, 83.500 275.081 C 67.589 277.638, 59.967 279.362, 61.195 280.127 C 64.229 282.017, 94.498 287.710, 129.500 292.974 C 137.200 294.132, 145.395 295.513, 147.712 296.044 C 155.053 297.727, 177.160 300, 186.179 300 C 190.959 300, 196.043 300.446, 197.478 300.992 C 199.312 301.689, 206.085 301.399, 220.293 300.016 C 251.371 296.992, 292.877 293.246, 309.500 291.966 C 317.750 291.331, 333.275 289.730, 344 288.409 C 354.725 287.088, 370.137 285.235, 378.250 284.292 C 386.363 283.348, 393 282.267, 393 281.890 C 393 281.514, 390.097 280.700, 386.549 280.082 C 380.393 279.010, 375.825 278.514, 345.068 275.575 L 331.636 274.291 327.068 277.799 C 314.910 287.135, 300.471 290.513, 276 289.744 C 253.850 289.048, 244.148 285.769, 231.168 274.591 C 227.926 271.799, 224.863 270, 223.353 270 C 221.986 270, 220.111 269.611, 219.184 269.135 C 218.258 268.660, 212.029 267.975, 205.342 267.612 L 193.184 266.954 192.492 271.227 M 53.748 287.585 C 53.427 287.907, 53.639 289.535, 54.221 291.204 C 56.205 296.895, 61.739 298.584, 106 307.007 C 129.675 311.513, 139.059 313.444, 162 318.530 C 175.401 321.500, 187.652 323.167, 192.231 322.641 C 195.360 322.282, 197.899 322.588, 199.731 323.543 C 204.177 325.863, 214.918 324.792, 249.500 318.583 C 253.900 317.793, 260.184 316.844, 263.465 316.474 C 266.746 316.105, 270.121 315.674, 270.965 315.516 C 273.697 315.007, 305.978 312.046, 325.636 310.501 C 336.161 309.674, 349.886 308.093, 356.136 306.988 C 362.386 305.882, 371.550 304.288, 376.500 303.445 C 385.377 301.932, 394.332 299.014, 398.776 296.185 C 401.240 294.616, 405.488 289.155, 404.788 288.455 C 404.551 288.218, 399.890 289.171, 394.429 290.572 C 388.968 291.973, 376.850 294.417, 367.500 296.003 C 358.150 297.589, 345.325 299.785, 339 300.882 C 328.138 302.767, 317.266 303.788, 284.500 306.003 C 276.800 306.523, 266 307.400, 260.500 307.952 C 255 308.503, 241.500 309.641, 230.500 310.481 C 219.500 311.320, 206.450 312.496, 201.500 313.094 C 192.924 314.131, 191.110 313.965, 163 309.566 C 108.475 301.034, 83.288 296.012, 62.500 289.526 C 58.100 288.153, 54.462 287.023, 54.417 287.015 C 54.371 287.007, 54.070 287.263, 53.748 287.585 M 670 317.178 C 655.062 317.832, 635.517 320.601, 629.697 322.889 L 626.895 323.990 627.551 332.245 C 629.499 356.760, 618.363 372, 598.503 372 C 586.640 372, 575.435 364.535, 566.625 350.763 L 563.035 345.151 559.268 346.170 C 548.173 349.169, 525.847 364.874, 478.003 403.335 C 465.730 413.201, 451.948 422.159, 440.649 427.613 C 424.367 435.474, 410.932 434.923, 396.832 425.816 C 384.578 417.900, 366.333 402.348, 350.443 386.275 L 334.385 370.032 329.943 374.625 C 324.960 379.777, 309.101 392.379, 304.804 394.602 C 301.149 396.491, 301.210 396.871, 306.446 404.782 C 331.161 442.124, 367.219 471.198, 400.500 480.618 C 431.377 489.359, 467.505 476.204, 519.259 437.376 C 546.818 416.700, 550.166 413.785, 549.558 411 C 547.239 400.378, 547.833 397.177, 551.884 398.463 C 554.333 399.240, 557.657 405.561, 574.518 441.500 C 582.258 458, 593.128 480.050, 598.672 490.500 C 604.216 500.950, 612.695 517.150, 617.515 526.500 L 626.278 543.500 635.878 543.827 C 641.158 544.007, 645.769 544.627, 646.126 545.203 C 646.569 545.920, 650.362 545.708, 658.137 544.531 L 669.500 542.811 669.815 536.787 C 669.988 533.473, 669.352 524.768, 668.401 517.442 L 666.674 504.121 661.933 502.984 C 656.794 501.751, 655.211 499.343, 657.154 495.713 C 658.250 493.665, 657.821 456.757, 656.646 452.040 C 656.310 450.687, 655.779 447.873, 655.468 445.786 C 655.157 443.700, 654.035 438.732, 652.975 434.746 C 647.341 413.567, 650.592 411.234, 700.142 400.906 L 705.783 399.730 704.899 396.615 C 703.814 392.796, 696.289 378.037, 694.423 376.068 C 693.676 375.281, 689.611 374.156, 685.390 373.568 C 676.513 372.333, 674.319 370.515, 677.485 367.017 C 679.158 365.168, 680.170 364.980, 685.943 365.441 C 689.549 365.729, 697.900 366.206, 704.500 366.501 C 763.790 369.152, 797.880 375.454, 812.143 386.401 C 822.952 394.697, 825.857 400.902, 827.914 420.088 C 830.036 439.872, 824.349 486.337, 817.353 506.376 C 816.609 508.507, 816.002 510.982, 816.003 511.876 C 816.009 514.554, 831.806 517.243, 850.564 517.757 L 866.628 518.198 868.344 510.349 C 869.288 506.032, 871.608 494.539, 873.500 484.810 C 875.391 475.080, 877.186 465.855, 877.489 464.310 C 881.948 441.499, 883.243 396.903, 879.799 384.690 C 872.433 358.562, 840.624 335.898, 798.208 326.556 C 767.648 319.826, 708.453 315.496, 670 317.178 M 327 321 C 324.525 321.428, 313.350 323.055, 302.166 324.618 L 281.832 327.459 284.487 329.742 C 285.947 330.998, 286.993 332.808, 286.812 333.763 C 286.244 336.760, 281.733 336.306, 274.475 332.523 L 267.611 328.946 249.056 332.100 C 231.194 335.137, 196.306 337.645, 195 335.986 C 194.725 335.636, 188.650 334.382, 181.500 333.198 C 174.350 332.014, 167.418 330.739, 166.095 330.365 C 163.754 329.704, 163.791 329.874, 167.484 336.711 C 172.504 346.006, 176.387 347.921, 199.594 352.551 C 211.962 355.019, 216.293 355.208, 234.945 354.093 C 260.452 352.569, 278 354.831, 278 359.642 C 278 360.517, 280.456 363.885, 283.457 367.127 C 286.458 370.369, 290.999 375.943, 293.547 379.514 C 296.369 383.468, 298.634 385.741, 299.340 385.326 C 305.753 381.566, 316.210 373.812, 321.219 369.104 L 327.398 363.297 323.449 358.544 C 321.277 355.930, 317.772 352.016, 315.660 349.847 C 310.955 345.015, 311.790 342.828, 319.449 339.921 C 326.083 337.402, 330.722 332.677, 332.527 326.596 C 334.736 319.158, 335.164 319.591, 327 321 M 706 376.898 C 706 377.392, 707.120 379.754, 708.489 382.148 C 709.857 384.542, 711.713 388.750, 712.612 391.500 C 714.901 398.504, 714.483 398.378, 727.626 396.032 C 734.157 394.866, 749.850 392.181, 762.500 390.064 C 775.840 387.831, 784.450 385.988, 783 385.675 C 779.376 384.894, 769.144 383.170, 764.500 382.559 C 744.232 379.891, 710.059 376, 706.893 376 C 706.402 376, 706 376.404, 706 376.898 M 792 395.518 C 788.425 396.238, 776.725 398.254, 766 399.998 C 755.275 401.743, 739.750 404.443, 731.500 405.998 C 702.475 411.471, 693.175 413.017, 679.402 414.657 C 671.756 415.568, 665.097 416.668, 664.605 417.101 C 663.604 417.983, 664.081 418.092, 679.500 420.487 C 692.141 422.452, 717.573 427.457, 723.572 429.161 C 727.259 430.209, 728.487 430.013, 736.572 427.084 C 741.482 425.305, 750.900 422.742, 757.500 421.389 C 764.100 420.036, 774.675 417.769, 781 416.352 C 797.724 412.604, 804.876 411.049, 810.424 409.956 C 816.616 408.736, 816.573 408.791, 814.862 404.297 C 813.751 401.379, 812.147 399.825, 807.611 397.275 C 801.176 393.657, 801.216 393.661, 792 395.518 M 893.729 409.750 C 893.515 410.163, 893.245 417.250, 893.130 425.500 C 893.015 433.750, 892.730 441.175, 892.497 442 C 892.264 442.825, 891.587 447.550, 890.994 452.500 C 890.400 457.450, 888.345 470.223, 886.426 480.885 C 884.507 491.547, 883.073 500.406, 883.239 500.572 C 883.616 500.950, 910.971 496.362, 911.501 495.833 C 911.714 495.620, 911.491 493.658, 911.006 491.473 C 910.520 489.288, 909.438 481.650, 908.600 474.500 C 907.762 467.350, 905.662 452.950, 903.933 442.500 C 902.204 432.050, 900.563 420.737, 900.285 417.361 C 899.851 412.071, 899.444 411.068, 897.343 410.111 C 894.456 408.795, 894.236 408.773, 893.729 409.750 M 797.500 424.947 C 787.600 426.991, 774.292 429.649, 767.927 430.854 C 754.590 433.377, 737.185 437.482, 736.371 438.296 C 736.065 438.602, 736.544 441.360, 737.436 444.427 C 739.744 452.366, 743.689 472.305, 744.524 480.250 C 744.914 483.962, 745.411 487, 745.628 487 C 745.845 487, 751.080 485.469, 757.261 483.599 C 770.503 479.591, 793.982 474.236, 805.408 472.617 L 813.500 471.470 814.813 465.485 C 816.353 458.469, 817.678 420.945, 816.379 421.115 C 815.896 421.178, 807.400 422.902, 797.500 424.947 M 662 424.412 C 662 424.712, 663.108 428.258, 664.462 432.292 C 667.349 440.892, 668.868 449.921, 669.815 464.106 L 670.500 474.367 676.500 475.657 C 704.832 481.748, 730.856 487, 732.707 487 C 735.407 487, 735.524 487.850, 729.362 462.701 C 726.963 452.912, 725 443.349, 725 441.451 C 725 438.783, 724.588 438, 723.184 438 C 720.392 438, 673.111 427.169, 663.750 424.386 C 662.788 424.099, 662 424.111, 662 424.412 M 798.500 482.626 C 791.900 484.483, 778.625 488.433, 769 491.404 C 759.375 494.375, 749.475 497.413, 747 498.156 C 742.752 499.430, 742.518 499.688, 742.814 502.753 C 743.097 505.676, 742.864 506, 740.484 506 C 738.351 506, 737.551 505.266, 736.348 502.204 C 734.912 498.548, 734.603 498.360, 727.999 497.139 C 724.227 496.442, 716.497 494.524, 710.821 492.877 C 705.144 491.230, 694.650 488.334, 687.500 486.441 C 680.350 484.548, 673.487 482.722, 672.250 482.383 C 670.071 481.786, 670 481.990, 670 488.806 L 670 495.845 673.250 496.859 C 681.045 499.292, 718.095 507.654, 726.500 508.878 C 744.949 511.563, 740.688 511.985, 785.981 502.991 L 809.462 498.328 810.590 494.414 C 812.640 487.299, 813.310 478.984, 811.822 479.124 C 811.095 479.193, 805.100 480.768, 798.500 482.626 M 679.355 512.250 C 681.443 529.566, 682.197 541.716, 681.740 550.686 C 681.194 561.428, 681.407 562, 685.966 562 C 688.210 562, 719.939 572.226, 729.776 576.120 C 733.778 577.704, 738.453 579, 740.165 579 L 743.278 579 742.645 572.750 C 740.958 556.075, 739.894 536.808, 740.295 530.196 C 740.810 521.724, 740.816 521.730, 730.435 520.469 C 727.171 520.072, 719.550 518.204, 713.500 516.316 C 703.240 513.116, 680.837 507, 679.373 507 C 679.015 507, 679.006 509.363, 679.355 512.250 M 894.911 510.030 C 880.238 511.957, 880.283 511.937, 879.404 516.785 C 879.033 518.828, 877.952 522.075, 877.001 524 C 875.513 527.010, 872.976 555.034, 874.195 554.989 C 874.363 554.982, 881.193 552.732, 889.373 549.989 C 897.553 547.245, 905.765 545, 907.623 545 C 909.667 545, 910.993 544.507, 910.983 543.750 C 910.974 543.063, 910.107 535.771, 909.056 527.547 C 907.818 517.845, 907.473 511.984, 908.076 510.858 C 909.455 508.281, 908.628 508.229, 894.911 510.030 M 798.500 510.622 C 776.591 515.048, 752.363 520.451, 751.476 521.109 C 750.363 521.936, 751.887 546.758, 753.983 561.946 C 754.624 566.591, 754.870 571.879, 754.529 573.696 C 753.675 578.250, 754.418 577.835, 757.119 572.250 C 760.272 565.729, 774.085 552.175, 781 548.815 C 784.231 547.245, 789.800 545.696, 794.500 545.060 C 807.524 543.297, 807.500 543.335, 807.500 524.637 C 807.500 514.813, 807.128 509.041, 806.500 509.106 C 805.950 509.162, 802.350 509.844, 798.500 510.622 M 816.324 523.598 C 816.023 524.383, 815.980 526.410, 816.229 528.104 C 816.785 531.896, 813.646 543.630, 811.192 546.934 C 808.422 550.661, 800.154 554.762, 793.838 555.540 C 786.850 556.402, 779.503 561.947, 768.987 574.296 L 762.057 582.434 765.059 584.334 C 772.621 589.122, 785.746 587.008, 795.729 579.393 C 799.910 576.204, 803.385 576.506, 803.801 580.095 C 804.471 585.860, 792.364 596.917, 783.325 598.795 C 781.101 599.257, 779.384 600.243, 779.208 601.160 C 778.706 603.767, 783.779 608.868, 787.584 609.582 C 793.800 610.748, 808.643 605.874, 817.154 599.872 C 821.623 596.721, 826 597.772, 826 601.996 C 826 602.454, 824.229 604.780, 822.064 607.164 C 817.381 612.322, 817.894 612.760, 825.348 609.971 C 849.353 600.989, 862.648 576.202, 864.216 537.500 L 864.500 530.500 861 530.241 C 848.722 529.331, 830.426 526.476, 824.192 524.496 C 818.083 522.556, 816.781 522.408, 816.324 523.598 M 644.500 556.102 C 634.050 557.720, 620.783 559.711, 615.018 560.526 C 598.532 562.857, 570.501 567.902, 559 570.610 C 553.225 571.969, 543.550 574.234, 537.500 575.643 C 482.191 588.521, 450.274 605.840, 424.423 637 C 415.412 647.863, 389.053 686.343, 372.021 713.500 C 362.476 728.720, 336 776.475, 336 778.471 C 336 778.762, 336.945 779, 338.100 779 C 341.323 779, 354.989 785.239, 361.602 789.730 C 369.605 795.164, 380.004 806.394, 384.532 814.492 C 386.579 818.152, 388.563 820.776, 388.941 820.323 C 389.842 819.244, 401.065 794.906, 407.996 779 C 413.213 767.027, 422.580 748.692, 431.752 732.500 C 436.425 724.250, 441.383 715.475, 442.770 713 C 462.987 676.908, 485.815 653.393, 511.500 642.199 C 530.457 633.938, 571.479 623.365, 603 618.615 C 623.448 615.534, 674.805 606.354, 687 603.600 C 704.647 599.616, 726 592.654, 726 590.885 C 726 588.224, 714.081 582.744, 691.110 574.843 C 668.414 567.037, 669.039 567.482, 669.409 559.422 L 669.703 553 666.601 553.080 C 664.896 553.124, 654.950 554.484, 644.500 556.102 M 708.500 644.298 C 703 644.851, 691.177 645.262, 682.228 645.211 C 672.284 645.155, 666.182 645.485, 666.537 646.060 C 666.857 646.578, 669.816 654.764, 673.113 664.251 C 698.964 738.647, 716.476 765.113, 751.519 782.748 C 771.026 792.564, 783.695 794.379, 834.285 794.602 L 875.070 794.783 876.943 791.111 C 880.973 783.212, 882.434 775.911, 882.468 763.500 C 882.505 749.776, 880.811 743.484, 875.759 738.584 L 872.753 735.668 862.127 738.265 C 818.400 748.952, 785.882 744.012, 765.448 723.579 C 755.263 713.394, 736.549 679.959, 724.965 651.250 C 722.676 645.579, 721.146 643.045, 720.068 643.145 C 719.206 643.225, 714 643.744, 708.500 644.298 M 197.615 755.166 L 193.774 758.332 194.448 765.416 C 196.671 788.780, 208.028 816.659, 225.095 840.653 C 243.405 866.395, 284.475 903.098, 308.842 915.494 C 319.570 920.953, 331.812 923.731, 333.451 921.079 C 333.764 920.573, 329.438 914.835, 323.837 908.329 C 301.742 882.663, 282.220 852.329, 262.487 813.001 C 258.736 805.526, 249.729 790.144, 243.357 780.331 C 236.447 769.689, 222.658 756.973, 214.195 753.437 C 208.142 750.908, 202.004 751.548, 197.615 755.166 M 344.374 797.750 C 341.213 802.434, 333.941 824, 335.523 824 C 337.802 824, 350.136 833.691, 356.068 840.142 L 361.636 846.198 365.995 839.349 C 368.392 835.582, 371.910 831.126, 373.813 829.447 L 377.273 826.393 374.513 821.947 C 368.679 812.550, 363.216 806.427, 355.663 800.819 C 346.598 794.088, 346.807 794.145, 344.374 797.750 M 694.500 941.114 C 664.457 941.678, 647.913 942.572, 632 944.491 C 630.075 944.723, 623.100 945.390, 616.500 945.973 C 605.111 946.979, 590.490 948.552, 583.138 949.563 C 577.244 950.373, 546.641 952.975, 542.858 952.988 C 539.790 952.998, 539.117 952.601, 538.581 950.466 C 537.443 945.934, 534.879 945.572, 512.749 946.822 C 501.612 947.451, 483.057 949.098, 471.516 950.483 C 445.186 953.641, 446.803 953.649, 448.050 950.368 C 449.294 947.097, 448.479 944.327, 445.862 942.926 C 442.255 940.996, 418.436 942.756, 396.660 946.563 C 376.470 950.092, 352.297 954.075, 327 958.039 C 319.575 959.203, 307.875 960.404, 301 960.708 C 286.747 961.340, 285 961.909, 285 965.920 C 285 969.560, 288.211 971.737, 295.595 973.102 C 305.469 974.927, 342.458 971.697, 371.500 966.472 C 388.316 963.447, 398.259 962.042, 399.113 962.570 C 399.601 962.871, 400.010 964.104, 400.022 965.309 C 400.034 966.514, 400.914 968.625, 401.976 970 C 403.868 972.449, 404.157 972.496, 416.203 972.292 C 427.608 972.100, 469.440 968.464, 470.944 967.535 C 471.310 967.308, 476.985 966.410, 483.555 965.538 C 490.125 964.666, 496.503 963.732, 497.730 963.462 C 499.326 963.111, 500.721 963.826, 502.640 965.981 L 505.321 968.989 521.410 968.588 C 530.260 968.368, 542.225 967.684, 548 967.068 C 571.624 964.551, 587.111 962.987, 598 962.019 C 617.038 960.327, 631.078 958.910, 639 957.882 C 643.125 957.347, 653.475 956.688, 662 956.419 C 670.525 956.150, 684.925 955.506, 694 954.989 C 703.075 954.472, 725.575 953.780, 744 953.450 C 762.425 953.121, 778.045 952.681, 778.711 952.472 C 779.377 952.263, 789.707 951.783, 801.666 951.405 C 824.134 950.695, 828.091 950.227, 828.766 948.202 C 829.951 944.646, 809.519 942.447, 766.500 941.502 C 748.900 941.116, 733.375 940.722, 732 940.628 C 730.625 940.534, 713.750 940.753, 694.500 941.114" stroke="none" fill="currentColor" fill-rule="evenodd"/>
</svg>